<svg width="175" height="30" viewBox="0 0 175 30" fill="none" xmlns="http://www.w3.org/2000/svg">
<g clip-path="url(#clip0_3825_1056)">
<path d="M163.818 10.6632C163.818 8.95523 164.036 7.62579 164.354 6.5087C160.327 7.30728 157.586 10.5847 157.586 14.9192C157.586 19.9046 161.231 23.5144 166.295 23.5144C166.631 23.5144 166.968 23.4959 167.29 23.4636C167.181 20.874 166.495 19.5353 165.704 18.0074C164.818 16.2948 163.818 14.3514 163.818 10.6586V10.6632Z" fill="#F48184"/>
<path d="M174.996 14.9192C174.996 10.1554 171.678 6.67026 166.996 6.34714C166.564 7.44577 166.273 8.73366 166.273 10.6586C166.273 13.7283 167.019 15.1685 167.873 16.8303C168.651 18.3351 169.514 20.0154 169.714 22.8912C172.905 21.6541 174.992 18.6767 174.992 14.9146L174.996 14.9192Z" fill="#F48184"/>
<path d="M37.1017 6.79029V22.9051H32.9017L32.4335 21.7695C31.1426 22.8358 29.5063 23.4544 27.6744 23.4544C22.8517 23.4544 19.4062 19.8585 19.4062 14.85C19.4062 9.84153 22.8563 6.3056 27.6744 6.3056C29.5335 6.3056 31.1926 6.93801 32.4926 8.03664L33.0472 6.79029H37.0972H37.1017ZM31.9335 14.8638C31.9335 12.7728 30.4381 11.1987 28.4063 11.1987C26.3744 11.1987 24.879 12.7728 24.879 14.8638C24.879 16.9549 26.3744 18.5383 28.4063 18.5383C30.4381 18.5383 31.9335 16.9688 31.9335 14.8638Z" fill="#F48184"/>
<path d="M54.8097 13.1005V22.9281H49.3778V13.8667C49.3778 11.988 48.6869 11.0602 47.3188 11.0602C45.6233 11.0602 44.6506 12.2696 44.6506 14.3191V22.9235H39.2188V6.81336H43.0278L43.7733 8.47515C44.946 7.13648 46.7006 6.33328 48.7369 6.33328C52.4006 6.33328 54.8051 8.99677 54.8051 13.0959L54.8097 13.1005Z" fill="#F48184"/>
<path d="M74.2658 6.79029V22.9051H70.0658L69.5976 21.7695C68.3067 22.8358 66.6703 23.4544 64.8385 23.4544C60.0158 23.4544 56.5703 19.8585 56.5703 14.85C56.5703 9.84153 60.0203 6.3056 64.8385 6.3056C66.6976 6.3056 68.3567 6.93801 69.6567 8.03664L70.2112 6.79029H74.2658ZM69.0976 14.8638C69.0976 12.7728 67.6021 11.1987 65.5658 11.1987C63.5294 11.1987 62.0385 12.7728 62.0385 14.8638C62.0385 16.9549 63.534 18.5383 65.5658 18.5383C67.5976 18.5383 69.0976 16.9688 69.0976 14.8638Z" fill="#F48184"/>
<path d="M106.14 6.73486V11.8172H104.031C102.108 11.8172 101.299 12.6804 101.299 14.7346V22.9281H95.8672V6.81334H99.5036L100.354 8.59977C101.467 7.28418 102.822 6.73486 104.699 6.73486H106.14Z" fill="#F48184"/>
<path d="M125.06 14.7161C125.06 15.2008 125.019 15.6901 124.946 16.1887H113.233C113.587 18.0351 114.737 18.9952 116.451 18.9952C117.724 18.9952 118.783 18.4275 119.306 17.4858H124.71C123.601 21.1602 120.41 23.4636 116.451 23.4636C111.533 23.4636 107.883 19.7892 107.883 14.8638C107.883 9.93846 111.501 6.29175 116.451 6.29175C121.401 6.29175 125.056 9.99847 125.056 14.7254L125.06 14.7161ZM113.328 13.1143H119.706C119.228 11.5033 118.092 10.6355 116.456 10.6355C114.819 10.6355 113.769 11.5126 113.333 13.1143H113.328Z" fill="#F48184"/>
<path d="M133.581 23.4544C129.285 23.4544 126.672 21.1325 126.617 17.6427H131.844C131.844 18.8198 132.649 19.3645 133.676 19.3645C134.472 19.3645 135.222 18.9491 135.222 18.1182C135.222 17.1903 134.026 16.9226 132.513 16.6687C130.067 16.2625 126.826 15.5101 126.826 11.6002C126.826 8.37358 129.522 6.28711 133.563 6.28711C137.604 6.28711 140.185 8.47052 140.244 11.7387H135.154C135.154 10.7093 134.476 10.2293 133.494 10.2293C132.622 10.2293 132.04 10.6678 132.04 11.4156C132.04 12.3296 133.244 12.5465 134.744 12.8189C137.235 13.2713 140.549 13.8021 140.549 17.8874C140.549 21.2571 137.767 23.459 133.576 23.459L133.581 23.4544Z" fill="#F48184"/>
<path d="M149.089 23.4544C144.793 23.4544 142.18 21.1325 142.125 17.6427H147.357C147.357 18.8198 148.161 19.3645 149.189 19.3645C149.984 19.3645 150.734 18.9491 150.734 18.1182C150.734 17.1903 149.539 16.9226 148.025 16.6687C145.58 16.2625 142.339 15.5101 142.339 11.6002C142.339 8.37358 145.034 6.28711 149.075 6.28711C153.116 6.28711 155.698 8.47052 155.757 11.7387H150.666C150.666 10.7093 149.993 10.2293 149.007 10.2293C148.134 10.2293 147.552 10.6678 147.552 11.4156C147.552 12.3296 148.757 12.5465 150.257 12.8189C152.748 13.2713 156.061 13.8021 156.061 17.8874C156.061 21.2571 153.28 23.459 149.089 23.459V23.4544Z" fill="#F48184"/>
<path d="M17.4955 13.5667C16.8955 9.44915 13.4909 6.28712 9.37727 6.28712C9.24545 6.28712 8.85909 6.28712 8.79545 6.28712C7.55 6.3102 6.38636 6.53639 5.31818 6.98415V2.70042C5.31818 1.20942 4.12727 0 2.65909 0C1.19091 0 0 1.20942 0 2.70042V15.0762C0.113636 19.7292 4.02727 23.4498 8.81818 23.4498C9.04545 23.4498 9.25455 23.459 9.47273 23.4405C13.3773 23.3944 16.6227 20.5047 17.4091 16.6595C17.5318 16.0825 17.6 15.487 17.6 14.8823C17.6 14.4345 17.5636 13.996 17.4955 13.5667ZM11.5682 14.3884C10.2182 14.3884 9.22273 13.3451 9.22273 11.9603C9.22273 10.5755 10.2136 9.523 11.5682 9.523C12.9227 9.523 13.9136 10.5662 13.9136 11.9603C13.9136 13.3544 12.9136 14.3884 11.5682 14.3884Z" fill="#F48184"/>
<path d="M93.921 13.1836C93.1301 9.29683 89.8483 6.37946 85.9074 6.3333C85.6847 6.31484 85.4528 6.3056 85.2256 6.3056C80.3847 6.3056 76.4483 10.0862 76.3438 14.7808V27.2673C76.3438 28.7768 77.5437 30 79.0301 30C80.5165 30 81.721 28.7768 81.721 27.2673V22.9466C82.7983 23.399 83.9847 23.6529 85.2301 23.6529C85.2937 23.6529 85.3574 23.6529 85.421 23.6529C85.5528 23.6621 85.6801 23.6667 85.8165 23.6667C89.971 23.6667 93.4074 20.477 94.0119 16.3133C94.0801 15.884 94.1165 15.4362 94.1165 14.9885C94.1165 14.3745 94.0483 13.7744 93.921 13.1882V13.1836ZM85.321 18.7414C83.2847 18.7414 81.7937 17.1673 81.7937 15.067C81.7937 12.9666 83.2892 11.4064 85.321 11.4064C87.3528 11.4064 88.8483 12.9805 88.8483 15.067C88.8483 17.1534 87.3528 18.7414 85.321 18.7414Z" fill="#F48184"/>
</g>
<defs>
<clipPath id="clip0_3825_1056">
<rect width="175" height="30" fill="white"/>
</clipPath>
</defs>
</svg>
